<svg xmlns="http://www.w3.org/2000/svg" xmlns:xlink="http://www.w3.org/1999/xlink" contentStyleType="text/css" data-diagram-type="CLASS" height="468px" preserveAspectRatio="none" style="width:1042px;height:468px;background:#FFFFFF;" version="1.1" viewBox="0 0 1042 468" width="1042px" zoomAndPan="magnify"><defs/><g><!--cluster rs-matter--><g class="cluster" data-entity="rs-matter" data-source-line="2" data-uid="ent0004" id="cluster_rs-matter"><path d="M8.5,6 L84.3672,6 A3.75,3.75 0 0 1 86.8672,8.5 L93.8672,28.2969 L799.5,28.2969 A2.5,2.5 0 0 1 802,30.7969 L802,458.58 A2.5,2.5 0 0 1 799.5,461.08 L8.5,461.08 A2.5,2.5 0 0 1 6,458.58 L6,8.5 A2.5,2.5 0 0 1 8.5,6" fill="none" style="stroke:#000000;stroke-width:1.5;"/><line style="stroke:#000000;stroke-width:1.5;" x1="6" x2="93.8672" y1="28.2969" y2="28.2969"/><text fill="#000000" font-family="sans-serif" font-size="14" font-weight="bold" lengthAdjust="spacing" textLength="74.8672" x="10" y="20.9951">rs-matter</text></g><!--cluster src--><g class="cluster" data-entity="src" data-source-line="2" data-uid="ent0005" id="cluster_src"><path d="M32.5,49 L57.0361,49 A3.75,3.75 0 0 1 59.5361,51.5 L66.5361,71.2969 L775.5,71.2969 A2.5,2.5 0 0 1 778,73.7969 L778,434.58 A2.5,2.5 0 0 1 775.5,437.08 L32.5,437.08 A2.5,2.5 0 0 1 30,434.58 L30,51.5 A2.5,2.5 0 0 1 32.5,49" fill="none" style="stroke:#000000;stroke-width:1.5;"/><line style="stroke:#000000;stroke-width:1.5;" x1="30" x2="66.5361" y1="71.2969" y2="71.2969"/><text fill="#000000" font-family="sans-serif" font-size="14" font-weight="bold" lengthAdjust="spacing" textLength="23.5361" x="34" y="63.9951">src</text></g><!--cluster clusters--><g class="cluster" data-entity="clusters" data-source-line="1" data-uid="ent0002" id="cluster_clusters"><path d="M56.5,92 L120.3223,92 A3.75,3.75 0 0 1 122.8223,94.5 L129.8223,114.2969 L751.5,114.2969 A2.5,2.5 0 0 1 754,116.7969 L754,410.58 A2.5,2.5 0 0 1 751.5,413.08 L56.5,413.08 A2.5,2.5 0 0 1 54,410.58 L54,94.5 A2.5,2.5 0 0 1 56.5,92" fill="none" style="stroke:#000000;stroke-width:1.5;"/><line style="stroke:#000000;stroke-width:1.5;" x1="54" x2="129.8223" y1="114.2969" y2="114.2969"/><text fill="#000000" font-family="sans-serif" font-size="14" font-weight="bold" lengthAdjust="spacing" textLength="62.8223" x="58" y="106.9951">clusters</text></g><!--cluster consumer business logic--><g class="cluster" data-entity="consumer business logic" data-source-line="20" data-uid="ent0008" id="cluster_consumer business logic"><path d="M828.5,273.34 L1023.2031,273.34 A3.75,3.75 0 0 1 1025.7031,275.84 L1032.7031,295.6369 L1032.5,295.6369 A2.5,2.5 0 0 1 1035,298.1369 L1035,386.13 A2.5,2.5 0 0 1 1032.5,388.63 L828.5,388.63 A2.5,2.5 0 0 1 826,386.13 L826,275.84 A2.5,2.5 0 0 1 828.5,273.34" fill="none" style="stroke:#000000;stroke-width:1.5;"/><line style="stroke:#000000;stroke-width:1.5;" x1="826" x2="1032.7031" y1="295.6369" y2="295.6369"/><text fill="#000000" font-family="sans-serif" font-size="14" font-weight="bold" lengthAdjust="spacing" textLength="193.7031" x="830" y="288.3351">consumer business logic</text></g><!--class on_off::ClusterHandler--><g class="entity" data-entity="on_off..ClusterHandler" data-source-line="2" data-uid="ent0003" id="entity_on_off..ClusterHandler"><rect fill="#F1F1F1" height="113.1875" rx="2.5" ry="2.5" style="stroke:#181818;stroke-width:0.5;" width="491.5752" x="70.21" y="283.89"/><ellipse cx="233.1924" cy="299.89" fill="#B4A7E5" rx="11" ry="11" style="stroke:#181818;stroke-width:1;"/><path d="M229.1143,295.6556 L229.1143,293.4994 L236.5049,293.4994 L236.5049,295.6556 L234.0362,295.6556 L234.0362,303.7338 L236.5049,303.7338 L236.5049,305.89 L229.1143,305.89 L229.1143,303.7338 L231.583,303.7338 L231.583,295.6556 L229.1143,295.6556 Z " fill="#000000"/><text fill="#000000" font-family="sans-serif" font-size="14" font-style="italic" lengthAdjust="spacing" textLength="157.1104" x="253.6924" y="304.7367">on_off::ClusterHandler</text><line style="stroke:#181818;stroke-width:0.5;" x1="71.21" x2="560.7852" y1="315.89" y2="315.89"/><line style="stroke:#181818;stroke-width:0.5;" x1="71.21" x2="560.7852" y1="323.89" y2="323.89"/><text fill="#000000" font-family="sans-serif" font-size="14" lengthAdjust="spacing" textLength="438.6074" x="76.21" y="340.8851">on_off(&amp;self, _ctx: &amp;ReadContext&lt;'_&gt;) -&gt; Result&lt;bool, Error&gt;</text><text fill="#000000" font-family="sans-serif" font-size="14" lengthAdjust="spacing" textLength="453.667" x="76.21" y="357.182">handle_off(&amp;self, ctx: &amp;InvokeContext&lt;'_&gt;) -&gt; Result&lt;(), Error&gt;</text><text fill="#000000" font-family="sans-serif" font-size="14" lengthAdjust="spacing" textLength="452.6826" x="76.21" y="373.4789">handle_on(&amp;self, ctx: &amp;InvokeContext&lt;'_&gt;) -&gt; Result&lt;(), Error&gt;</text><text fill="#000000" font-family="sans-serif" font-size="14" lengthAdjust="spacing" textLength="479.5752" x="76.21" y="389.7757">handle_toggle(&amp;self, ctx: &amp;InvokeContext&lt;'_&gt;) -&gt; Result&lt;(), Error&gt;</text></g><!--class OnOffCluster--><g class="entity" data-entity="OnOffCluster" data-source-line="9" data-uid="ent0006" id="entity_OnOffCluster"><rect fill="#F1F1F1" height="48" rx="2.5" ry="2.5" style="stroke:#181818;stroke-width:0.5;" width="122.46" x="69.77" y="151.45"/><ellipse cx="84.77" cy="167.45" fill="#ADD1B2" rx="11" ry="11" style="stroke:#181818;stroke-width:1;"/><path d="M87.7388,173.0906 Q87.1606,173.3875 86.52,173.5281 Q85.8794,173.6844 85.1763,173.6844 Q82.6763,173.6844 81.3481,172.0438 Q80.0356,170.3875 80.0356,167.2625 Q80.0356,164.1375 81.3481,162.4813 Q82.6763,160.825 85.1763,160.825 Q85.8794,160.825 86.52,160.9813 Q87.1763,161.1375 87.7388,161.4344 L87.7388,164.1531 Q87.1138,163.575 86.52,163.3094 Q85.9263,163.0281 85.3013,163.0281 Q83.9575,163.0281 83.27,164.1063 Q82.5825,165.1688 82.5825,167.2625 Q82.5825,169.3563 83.27,170.4344 Q83.9575,171.4969 85.3013,171.4969 Q85.9263,171.4969 86.52,171.2313 Q87.1138,170.95 87.7388,170.3719 L87.7388,173.0906 Z " fill="#000000"/><text fill="#000000" font-family="sans-serif" font-size="14" lengthAdjust="spacing" textLength="90.46" x="98.77" y="172.2967">OnOffCluster</text><line style="stroke:#181818;stroke-width:0.5;" x1="70.77" x2="191.23" y1="183.45" y2="183.45"/><line style="stroke:#181818;stroke-width:0.5;" x1="70.77" x2="191.23" y1="191.45" y2="191.45"/></g><!--class OnOffHook--><g class="entity" data-entity="OnOffHook" data-source-line="13" data-uid="ent0007" id="entity_OnOffHook"><rect fill="#F1F1F1" height="96.8906" rx="2.5" ry="2.5" style="stroke:#181818;stroke-width:0.5;" width="510.7773" x="227.61" y="127"/><ellipse cx="440.4811" cy="143" fill="#B4A7E5" rx="11" ry="11" style="stroke:#181818;stroke-width:1;"/><path d="M436.403,138.7656 L436.403,136.6094 L443.7936,136.6094 L443.7936,138.7656 L441.3248,138.7656 L441.3248,146.8438 L443.7936,146.8438 L443.7936,149 L436.403,149 L436.403,146.8438 L438.8717,146.8438 L438.8717,138.7656 L436.403,138.7656 Z " fill="#000000"/><text fill="#000000" font-family="sans-serif" font-size="14" font-style="italic" lengthAdjust="spacing" textLength="76.5352" x="460.9811" y="147.8467">OnOffHook</text><line style="stroke:#181818;stroke-width:0.5;" x1="228.61" x2="737.3873" y1="159" y2="159"/><line style="stroke:#181818;stroke-width:0.5;" x1="228.61" x2="737.3873" y1="167" y2="167"/><text fill="#000000" font-family="sans-serif" font-size="14" lengthAdjust="spacing" textLength="207.792" x="233.61" y="183.9951">raw_get_on_off(&amp;self) -&gt; bool</text><text fill="#000000" font-family="sans-serif" font-size="14" lengthAdjust="spacing" textLength="363.5557" x="233.61" y="200.292">raw_set_on_off(&amp;self, on: bool) -&gt; Result&lt;(), Error&gt;</text><text fill="#000000" font-family="sans-serif" font-size="14" lengthAdjust="spacing" textLength="498.7773" x="233.61" y="216.5889">set_on(&amp;self, _ctx: &amp;InvokeContext&lt;'_&gt;, on: bool) -&gt; Result&lt;(), Error&gt;</text></g><!--class OnOffHandler--><g class="entity" data-entity="OnOffHandler" data-source-line="21" data-uid="ent0009" id="entity_OnOffHandler"><rect fill="#F1F1F1" height="64.2969" rx="2.5" ry="2.5" style="stroke:#181818;stroke-width:0.5;" width="127.8945" x="842.05" y="308.34"/><ellipse cx="857.05" cy="324.34" fill="#ADD1B2" rx="11" ry="11" style="stroke:#181818;stroke-width:1;"/><path d="M860.0188,329.9806 Q859.4406,330.2775 858.8,330.4181 Q858.1594,330.5744 857.4563,330.5744 Q854.9563,330.5744 853.6281,328.9338 Q852.3156,327.2775 852.3156,324.1525 Q852.3156,321.0275 853.6281,319.3713 Q854.9563,317.715 857.4563,317.715 Q858.1594,317.715 858.8,317.8713 Q859.4563,318.0275 860.0188,318.3244 L860.0188,321.0431 Q859.3938,320.465 858.8,320.1994 Q858.2063,319.9181 857.5813,319.9181 Q856.2375,319.9181 855.55,320.9963 Q854.8625,322.0588 854.8625,324.1525 Q854.8625,326.2463 855.55,327.3244 Q856.2375,328.3869 857.5813,328.3869 Q858.2063,328.3869 858.8,328.1213 Q859.3938,327.84 860.0188,327.2619 L860.0188,329.9806 Z " fill="#000000"/><text fill="#000000" font-family="sans-serif" font-size="14" lengthAdjust="spacing" textLength="95.8945" x="871.05" y="329.1867">OnOffHandler</text><line style="stroke:#181818;stroke-width:0.5;" x1="843.05" x2="968.9445" y1="340.34" y2="340.34"/><text fill="#000000" font-family="sans-serif" font-size="14" lengthAdjust="spacing" textLength="56.5127" x="848.05" y="357.3351">on: bool</text><line style="stroke:#181818;stroke-width:0.5;" x1="843.05" x2="968.9445" y1="364.6369" y2="364.6369"/></g><!--reverse link OnOffCluster to on_off::ClusterHandler--><g class="link" data-entity-1="OnOffCluster" data-entity-2="on_off..ClusterHandler" data-source-line="26" data-uid="lnk10" id="link_OnOffCluster_on_off..ClusterHandler"><path codeLine="26" d="M171.0119,211.7138 C195.6819,233.4638 219.94,254.83 252.41,283.44" fill="none" id="OnOffCluster-backto-on_off::ClusterHandler" style="stroke:#181818;stroke-width:1;stroke-dasharray:7,7;"/><polygon fill="none" points="157.51,199.81,167.044,216.2144,174.9798,207.2131,157.51,199.81" style="stroke:#181818;stroke-width:1;"/></g><!--reverse link OnOffHandler to OnOffHook--><g class="link" data-entity-1="OnOffHandler" data-entity-2="OnOffHook" data-source-line="27" data-uid="lnk11" id="link_OnOffHandler_OnOffHook"><path codeLine="27" d="M830.143,299.8552 C802.483,285.8852 785.02,277.92 754,265.34 C717.98,250.73 678.57,236.72 641.24,224.31" fill="none" id="OnOffHandler-backto-OnOffHook" style="stroke:#181818;stroke-width:1;stroke-dasharray:7,7;"/><polygon fill="none" points="846.21,307.97,832.8479,294.4995,827.438,305.2108,846.21,307.97" style="stroke:#181818;stroke-width:1;"/></g><!--reverse link OnOffCluster to OnOffHandler--><g class="link" data-entity-1="OnOffCluster" data-entity-2="OnOffHandler" data-source-line="28" data-uid="lnk12" id="link_OnOffCluster_OnOffHandler"><path codeLine="28" d="M172.45,206.5178 C186.32,215.6278 193.23,218.55 210,223.89 C441.04,297.5 519.98,201.84 754,265.34 C788.85,274.79 825.3,292.28 853.77,307.9" fill="none" id="OnOffCluster-backto-OnOffHandler" style="stroke:#181818;stroke-width:1;"/><polygon fill="#181818" points="162.42,199.93,165.239,206.5672,172.45,206.5178,169.6309,199.8806,162.42,199.93" style="stroke:#181818;stroke-width:1;"/></g><!--SRC=[fP91QiCm44NNqYb45cbIR1_0c6n28Lq5SW6ZA99hh6Y2Hcu3hUzUoLPREwqfjBk1F_D6_sikN3IyainYUkREIPkX5PdGBVeQsIibjV6Lua8oC2KebUVRGTrnSzBIXXuMjTKIfLO9AuMxvcnvaFoq1Jz_TSLTkLcpTCCE4bljYYE0JjY3jM0tOVwfXuqP0-BHF4CZPo2hzKy8yr-2WwhIye-KZX9AXEQ8R6_sIiMmGafH_0gqRzW1D44bbh-KbNJbECf-IyWgwdYZ9pxul6-OUmyPHcv-vfkTtq4TxIYzn7DP233OdhslOukraTwjXgeMY-1av7vq8-HZGKHDqYdUicpclkW4r3T-vZQ5tAVfPEix]--></g></svg>